<?xml version="1.0" encoding="UTF-8"?>
<!DOCTYPE svg PUBLIC "-//W3C//DTD SVG 1.1//EN" "http://www.w3.org/Graphics/SVG/1.1/DTD/svg11.dtd">
<svg xmlns="http://www.w3.org/2000/svg" version="1.1" width="1500px" height="1500px" style="shape-rendering:geometricPrecision; text-rendering:geometricPrecision; image-rendering:optimizeQuality; fill-rule:evenodd; clip-rule:evenodd" xmlns:xlink="http://www.w3.org/1999/xlink">
<g><path style="opacity:0.998" fill="#1dbf73" d="M 735.5,-0.5 C 745.5,-0.5 755.5,-0.5 765.5,-0.5C 954.829,5.7439 1119.5,71.9106 1259.5,198C 1400.45,330.737 1480.45,493.903 1499.5,687.5C 1499.5,729.833 1499.5,772.167 1499.5,814.5C 1479.03,1018.28 1392.37,1187.45 1239.5,1322C 1119.05,1423.57 980.055,1482.74 822.5,1499.5C 774.5,1499.5 726.5,1499.5 678.5,1499.5C 464.016,1475.2 289.85,1379.2 156,1211.5C 61.1226,1087.07 8.9559,946.406 -0.5,789.5C -0.5,763.833 -0.5,738.167 -0.5,712.5C 12.7032,514.562 89.7032,346.395 230.5,208C 372.325,75.7969 540.659,6.29693 735.5,-0.5 Z"/></g>
<g><path style="opacity:1" fill="#fefefe" d="M 722.5,295.5 C 784.5,295.5 846.5,295.5 908.5,295.5C 908.5,352.833 908.5,410.167 908.5,467.5C 863.33,467.168 818.33,467.501 773.5,468.5C 740.39,473.108 720.223,491.775 713,524.5C 712.5,541.83 712.333,559.163 712.5,576.5C 846.833,576.5 981.167,576.5 1115.5,576.5C 1115.5,786.5 1115.5,996.5 1115.5,1206.5C 1046.83,1206.5 978.167,1206.5 909.5,1206.5C 909.833,1052.33 909.5,898.332 908.5,744.5C 843.167,743.167 777.833,743.167 712.5,744.5C 711.5,898.332 711.167,1052.33 711.5,1206.5C 642.833,1206.5 574.167,1206.5 505.5,1206.5C 505.5,1052.17 505.5,897.833 505.5,743.5C 465.167,743.5 424.833,743.5 384.5,743.5C 384.5,687.833 384.5,632.167 384.5,576.5C 424.833,576.5 465.167,576.5 505.5,576.5C 505.333,552.164 505.5,527.831 506,503.5C 515.255,417.777 558.088,355.277 634.5,316C 662.351,302.885 691.684,296.051 722.5,295.5 Z"/></g>
<g><path style="opacity:1" fill="#b7ead2" d="M 722.5,295.5 C 784.664,294.501 846.998,294.168 909.5,294.5C 909.5,352.5 909.5,410.5 909.5,468.5C 864.167,468.5 818.833,468.5 773.5,468.5C 818.33,467.501 863.33,467.168 908.5,467.5C 908.5,410.167 908.5,352.833 908.5,295.5C 846.5,295.5 784.5,295.5 722.5,295.5 Z"/></g>
<g><path style="opacity:1" fill="#c6eedb" d="M 712.5,744.5 C 712.5,898.833 712.5,1053.17 712.5,1207.5C 643.331,1207.83 574.331,1207.5 505.5,1206.5C 574.167,1206.5 642.833,1206.5 711.5,1206.5C 711.167,1052.33 711.5,898.332 712.5,744.5 Z"/></g>
<g><path style="opacity:1" fill="#b0e8cd" d="M 908.5,744.5 C 909.5,898.332 909.833,1052.33 909.5,1206.5C 978.167,1206.5 1046.83,1206.5 1115.5,1206.5C 1046.67,1207.5 977.669,1207.83 908.5,1207.5C 908.5,1053.17 908.5,898.833 908.5,744.5 Z"/></g>
</svg>
