<?xml version="1.0" encoding="UTF-8" standalone="no"?>
<svg
   xmlns:dc="http://purl.org/dc/elements/1.1/"
   xmlns:cc="http://creativecommons.org/ns#"
   xmlns:rdf="http://www.w3.org/1999/02/22-rdf-syntax-ns#"
   xmlns:svg="http://www.w3.org/2000/svg"
   xmlns="http://www.w3.org/2000/svg"
   viewBox="0 0 2666.6667 2666.6667"
   height="2666.6667"
   width="2666.6667"
   xml:space="preserve"
   id="svg2"
   version="1.1"><metadata
     id="metadata8"><rdf:RDF><cc:Work
         rdf:about=""><dc:format>image/svg+xml</dc:format><dc:type
           rdf:resource="http://purl.org/dc/dcmitype/StillImage" /></cc:Work></rdf:RDF></metadata><defs
     id="defs6" /><g
     transform="matrix(1.3333333,0,0,-1.3333333,0,2666.6667)"
     id="g10"><g
       transform="scale(0.1)"
       id="g12"><path
         id="path14"
         style="fill:#f04425;fill-opacity:1;fill-rule:nonzero;stroke:none"
         d="M 20000,10000 C 20000,4477.1 15522.9,0 10000,0 4477.15,0 0,4477.1 0,10000 c 0,5522.9 4477.15,10000 10000,10000 5522.9,0 10000,-4477.1 10000,-10000" /><path
         id="path16"
         style="fill:#ffffff;fill-opacity:1;fill-rule:nonzero;stroke:none"
         d="m 10000.4,6531.8 c 377.3,-1.5 661.1,51.2 922.8,193.8 380.6,207.3 579.4,526.6 569.6,963.2 -7.1,316.1 -163.2,562.9 -389.5,770.3 -267.8,245.5 -593.7,384.6 -928.7,510.1 -215.64,80.8 -426.57,175 -635.55,272 -76.44,35.4 -144.1,92.4 -210.85,145.7 -376.97,301.3 -278.45,725.4 -24.09,961.7 291.18,270.6 639.68,339.4 1021.39,268.3 233,-43.4 444.9,-139.5 641.3,-271.5 49.9,-33.5 104,-49.8 159.9,-12.2 59.9,40.2 91.3,101.2 71.9,167.6 -13.8,47.3 -49.8,98.7 -90.7,125.9 -369.1,245.5 -776.1,359.1 -1218.86,317 -375.75,-35.8 -694.52,-189.1 -922.08,-500.9 -266.72,-365.4 -265.54,-819.6 12.68,-1144.9 91.51,-107 206.29,-197.6 321.72,-279.8 234.98,-167.4 507.15,-259.9 776.04,-355.9 292.9,-104.6 573.6,-230.8 811.1,-437.1 452.4,-392.8 370.3,-993.6 -170.1,-1252.7 -297.7,-142.7 -609.3,-161.3 -928.13,-100 -336.81,64.7 -641.75,204.3 -917.58,407.3 -51.25,37.7 -107.47,68.1 -164.36,32.1 -42.31,-26.7 -85.67,-70.9 -101.17,-116.6 -24.56,-72.4 24.45,-128 81.61,-170.4 413.79,-307.3 873.35,-485.5 1311.63,-493 z m -12.29,5630.2 c 423.49,0 846.99,-0.1 1270.49,0 107.5,0 112.7,1.5 96.2,110.4 -33,218 -61.9,437.5 -110.4,652.3 -80.2,354.6 -205,693.5 -438.4,979.6 -276.8,339 -628,486.2 -1063.82,377.7 -312.96,-77.8 -534.9,-280.5 -698.58,-548.9 -273.49,-448.3 -370.35,-948.2 -411.01,-1462.7 -8.51,-107.6 -4.51,-108.3 100.61,-108.3 418.3,-0.2 836.6,-0.1 1254.91,-0.1 z m -1.23,-6972.8 c -932.72,-0.1 -1865.52,6.8 -2798.15,-2.6 -603.65,-6.1 -939.4,334 -1050.85,862 -42.61,201.9 -49.15,411.9 -65.25,618.7 -37.66,483.9 -71.22,968.2 -106.32,1452.4 -37.92,523.2 -75.71,1046.5 -113.54,1569.8 -47.36,655.2 -95.26,1310.3 -141.83,1965.6 -23.63,332.4 133.49,504.3 468,505.7 610.55,2.5 1221.12,1 1831.68,1.1 112.67,0 109.89,0.3 117.23,113.7 40.41,624.9 176.66,1222.9 514.62,1760 243.95,387.7 577.12,662.1 1037.24,747 634.09,116.9 1143.69,-101.2 1535.09,-604.6 301.4,-387.5 468.8,-836 564.3,-1311.6 42.2,-210.4 60.4,-425.9 82.2,-639.8 6.8,-67 42.4,-64.6 88.7,-64.6 613.1,0.4 1226.3,-0.3 1839.4,0.5 378.3,0.5 532.6,-183.4 497,-560 -44.4,-470.5 -69.9,-942.7 -104.5,-1414.2 -39.7,-541.2 -81.3,-1082.4 -120.6,-1623.6 -54.2,-745.9 -105.7,-1491.9 -161.3,-2237.7 -21.3,-285.2 -103.7,-552.2 -283,-779.3 -196.9,-249.3 -463.2,-358.5 -777.4,-358.5 -950.9,0 -1901.8,0 -2852.72,0" /></g></g></svg>