<?xml version="1.0" encoding="UTF-8" standalone="no"?>
<!DOCTYPE svg PUBLIC "-//W3C//DTD SVG 1.1//EN" "http://www.w3.org/Graphics/SVG/1.1/DTD/svg11.dtd">
<svg width="100%" height="100%" viewBox="0 0 2667 2667" version="1.1" xmlns="http://www.w3.org/2000/svg" xmlns:xlink="http://www.w3.org/1999/xlink" xml:space="preserve" xmlns:serif="http://www.serif.com/" style="fill-rule:evenodd;clip-rule:evenodd;stroke-linejoin:round;stroke-miterlimit:2;">
    <g transform="matrix(0.186186,-2.36587e-32,2.67944e-32,-0.186186,-528.533,3195.19)">
        <g id="g10">
            <g id="g12">
                <g id="g16">
                    <g id="g18">
                        <clipPath id="_clip1">
                            <path d="M17161.3,10000C17161.3,13955.1 13955.1,17161.3 10000,17161.3C6044.94,17161.3 2838.73,13955.1 2838.73,10000C2838.73,6044.9 6044.94,2838.7 10000,2838.7C13955.1,2838.7 17161.3,6044.9 17161.3,10000Z"/>
                        </clipPath>
                        <g clip-path="url(#_clip1)">
                            <path id="path30" d="M17161.3,10000C17161.3,13955.1 13955.1,17161.3 10000,17161.3C6044.94,17161.3 2838.73,13955.1 2838.73,10000C2838.73,6044.9 6044.94,2838.7 10000,2838.7C13955.1,2838.7 17161.3,6044.9 17161.3,10000" style="fill:url(#_Linear2);fill-rule:nonzero;"/>
                        </g>
                    </g>
                </g>
                <path id="path32" d="M7701.59,9392.6L5954.07,9962.1C5954.07,9962.1 5745.45,10046.8 5812.46,10238.9C5826.28,10278.6 5854.19,10312.3 5937.63,10370.4C6324.91,10640.3 13105.2,13077.4 13105.2,13077.4C13105.2,13077.4 13296.7,13141.9 13409.8,13099C13461.5,13079.4 13494.5,13057.3 13522.3,12976.3C13532.4,12946.9 13538.3,12884.3 13537.5,12822.1C13537,12777.2 13531.4,12735.6 13527.4,12670.4C13486.1,12004.1 12250.5,7031.3 12250.5,7031.3C12250.5,7031.3 12176.6,6740.3 11911.7,6730.4C11815.1,6726.8 11697.8,6746.3 11557.7,6866.9C11037.9,7314.1 9241.05,8521.6 8844.03,8787.2C8821.69,8802.1 8815.29,8821.6 8811.49,8840.6C8805.9,8868.6 8836.33,8903.3 8836.33,8903.3C8836.33,8903.3 11965,11684.3 12048.2,11976.2C12054.7,11998.8 12030.5,12009.9 11997.7,12000.2C11789.8,11923.7 8187.58,9649.1 7790.05,9397.9C7766.8,9383.2 7701.59,9392.6 7701.59,9392.6" style="fill:white;fill-rule:nonzero;"/>
            </g>
        </g>
    </g>
    <defs>
        <linearGradient id="_Linear2" x1="0" y1="0" x2="1" y2="0" gradientUnits="userSpaceOnUse" gradientTransform="matrix(8.77e-13,14322.5,-14322.5,8.77e-13,10000,2838.7)"><stop offset="0" style="stop-color:rgb(65,148,215);stop-opacity:1"/><stop offset="1" style="stop-color:rgb(72,183,234);stop-opacity:1"/></linearGradient>
    </defs>
</svg>
