<?xml version="1.0" encoding="UTF-8"?>
<!DOCTYPE svg PUBLIC "-//W3C//DTD SVG 1.1//EN" "http://www.w3.org/Graphics/SVG/1.1/DTD/svg11.dtd">
<svg xmlns="http://www.w3.org/2000/svg" version="1.1" width="4177px" height="4177px" style="shape-rendering:geometricPrecision; text-rendering:geometricPrecision; image-rendering:optimizeQuality; fill-rule:evenodd; clip-rule:evenodd" xmlns:xlink="http://www.w3.org/1999/xlink">
<g><path style="opacity:0.994" fill="#39aeef" d="M 2715.5,210.5 C 2297.83,210.5 1880.17,210.5 1462.5,210.5C 1716.6,126.322 1977.26,94.4884 2244.5,115C 2405.61,127.322 2562.61,159.155 2715.5,210.5 Z"/></g>
<g><path style="opacity:0.999" fill="#37acee" d="M 1462.5,210.5 C 1880.17,210.5 2297.83,210.5 2715.5,210.5C 2928.61,281.191 3122.94,384.857 3298.5,521.5C 2492.17,521.5 1685.83,521.5 879.5,521.5C 1055.38,385.366 1249.71,281.699 1462.5,210.5 Z"/></g>
<g><path style="opacity:1" fill="#34aaea" d="M 879.5,521.5 C 1685.83,521.5 2492.17,521.5 3298.5,521.5C 3573.03,734.847 3778.53,1001.51 3915,1321.5C 3935.05,1369.8 3953.21,1418.8 3969.5,1468.5C 3696.83,1468.5 3424.17,1468.5 3151.5,1468.5C 3154.85,1439.53 3158.01,1410.53 3161,1381.5C 3164.81,1342.51 3165.14,1303.51 3162,1264.5C 3160,1240.12 3152.33,1217.79 3139,1197.5C 3124.44,1179.63 3105.61,1169.13 3082.5,1166C 3047.8,1162.63 3013.46,1164.96 2979.5,1173C 2906.65,1190.47 2834.98,1212.13 2764.5,1238C 2625.37,1289.07 2487.71,1343.73 2351.5,1402C 2299.14,1424.51 2246.81,1447.01 2194.5,1469.5C 1532.67,1468.5 870.667,1468.17 208.5,1468.5C 320.347,1134.68 506.347,850.183 766.5,615C 803.166,582.49 840.832,551.323 879.5,521.5 Z"/></g>
<g><path style="opacity:1" fill="#fefefe" d="M 3151.5,1468.5 C 3149.15,1482.98 3147.15,1497.65 3145.5,1512.5C 3141.52,1539.37 3137.52,1566.37 3133.5,1593.5C 3110.58,1749.25 3087.08,1904.92 3063,2060.5C 3031.15,2261.6 2998.65,2462.6 2965.5,2663.5C 2958.07,2704.73 2951.07,2746.06 2944.5,2787.5C 2934.4,2845.42 2924.74,2903.42 2915.5,2961.5C 2907.55,3002.19 2893.38,3040.52 2873,3076.5C 2832.15,3139.65 2774.32,3164.82 2699.5,3152C 2655.7,3142.84 2614.37,3127.18 2575.5,3105C 2505.8,3056.16 2436.14,3007.32 2366.5,2958.5C 2285.47,2900.81 2204.13,2843.48 2122.5,2786.5C 2064.89,2745.02 2006.89,2704.02 1948.5,2663.5C 1929.01,2649.53 1909.35,2635.7 1889.5,2622C 1867.78,2605.95 1849.95,2586.45 1836,2563.5C 1822.67,2538.26 1821,2512.26 1831,2485.5C 1839.91,2465.34 1851.57,2447 1866,2430.5C 1877.17,2418.67 1888.33,2406.83 1899.5,2395C 2104.17,2202 2308.83,2009 2513.5,1816C 2541.26,1789.92 2566.43,1761.75 2589,1731.5C 2602.97,1712.88 2612.64,1692.22 2618,1669.5C 2619.12,1644.63 2607.12,1633.29 2582,1635.5C 2569.84,1635.27 2558,1637.1 2546.5,1641C 2512.42,1653.21 2480.09,1668.87 2449.5,1688C 2143.23,1894.61 1837.23,2101.61 1531.5,2309C 1461.74,2352.41 1385.74,2371.75 1303.5,2367C 1255.05,2363.62 1207.72,2354.62 1161.5,2340C 1062.24,2304.8 962.909,2269.8 863.5,2235C 838.78,2226.33 815.447,2214.99 793.5,2201C 761.372,2179.02 756.872,2152.52 780,2121.5C 795.591,2105.14 813.091,2091.3 832.5,2080C 849.515,2070.16 866.848,2060.82 884.5,2052C 1020.25,1993.97 1155.58,1934.97 1290.5,1875C 1498.41,1780.88 1706.41,1687.04 1914.5,1593.5C 1973.23,1567.13 2031.9,1540.8 2090.5,1514.5C 2125.32,1499.89 2159.99,1484.89 2194.5,1469.5C 2246.81,1447.01 2299.14,1424.51 2351.5,1402C 2487.71,1343.73 2625.37,1289.07 2764.5,1238C 2834.98,1212.13 2906.65,1190.47 2979.5,1173C 3013.46,1164.96 3047.8,1162.63 3082.5,1166C 3105.61,1169.13 3124.44,1179.63 3139,1197.5C 3152.33,1217.79 3160,1240.12 3162,1264.5C 3165.14,1303.51 3164.81,1342.51 3161,1381.5C 3158.01,1410.53 3154.85,1439.53 3151.5,1468.5 Z"/></g>
<g><path style="opacity:1" fill="#32a8e8" d="M 208.5,1468.5 C 870.667,1468.17 1532.67,1468.5 2194.5,1469.5C 2159.99,1484.89 2125.32,1499.89 2090.5,1514.5C 1458.5,1514.5 826.5,1514.5 194.5,1514.5C 198.563,1498.98 203.23,1483.64 208.5,1468.5 Z"/></g>
<g><path style="opacity:0.999" fill="#32a8e8" d="M 3151.5,1468.5 C 3424.17,1468.5 3696.83,1468.5 3969.5,1468.5C 3974.88,1483.63 3979.88,1498.96 3984.5,1514.5C 3704.5,1515.17 3424.83,1514.5 3145.5,1512.5C 3147.15,1497.65 3149.15,1482.98 3151.5,1468.5 Z"/></g>
<g><path style="opacity:1" fill="#32a8e7" d="M 194.5,1514.5 C 826.5,1514.5 1458.5,1514.5 2090.5,1514.5C 2031.9,1540.8 1973.23,1567.13 1914.5,1593.5C 1334,1592.5 753.334,1592.17 172.5,1592.5C 178.609,1566.05 185.942,1540.05 194.5,1514.5 Z"/></g>
<g><path style="opacity:0.999" fill="#32a8e7" d="M 3145.5,1512.5 C 3424.83,1514.5 3704.5,1515.17 3984.5,1514.5C 3992.15,1540.43 3999.48,1566.43 4006.5,1592.5C 3715.43,1592.17 3424.43,1592.5 3133.5,1593.5C 3137.52,1566.37 3141.52,1539.37 3145.5,1512.5 Z"/></g>
<g><path style="opacity:1" fill="#2ea5e3" d="M 172.5,1592.5 C 753.334,1592.17 1334,1592.5 1914.5,1593.5C 1706.41,1687.04 1498.41,1780.88 1290.5,1875C 1155.58,1934.97 1020.25,1993.97 884.5,2052C 866.848,2060.82 849.515,2070.16 832.5,2080C 813.091,2091.3 795.591,2105.14 780,2121.5C 756.872,2152.52 761.372,2179.02 793.5,2201C 815.447,2214.99 838.78,2226.33 863.5,2235C 962.909,2269.8 1062.24,2304.8 1161.5,2340C 1207.72,2354.62 1255.05,2363.62 1303.5,2367C 1385.74,2371.75 1461.74,2352.41 1531.5,2309C 1837.23,2101.61 2143.23,1894.61 2449.5,1688C 2480.09,1668.87 2512.42,1653.21 2546.5,1641C 2558,1637.1 2569.84,1635.27 2582,1635.5C 2607.12,1633.29 2619.12,1644.63 2618,1669.5C 2612.64,1692.22 2602.97,1712.88 2589,1731.5C 2566.43,1761.75 2541.26,1789.92 2513.5,1816C 2308.83,2009 2104.17,2202 1899.5,2395C 1888.33,2406.83 1877.17,2418.67 1866,2430.5C 1851.57,2447 1839.91,2465.34 1831,2485.5C 1821,2512.26 1822.67,2538.26 1836,2563.5C 1849.95,2586.45 1867.78,2605.95 1889.5,2622C 1909.35,2635.7 1929.01,2649.53 1948.5,2663.5C 1363.83,2663.5 779.167,2663.5 194.5,2663.5C 114.98,2399.27 91.1463,2129.93 123,1855.5C 133.296,1766.53 149.796,1678.86 172.5,1592.5 Z"/></g>
<g><path style="opacity:1" fill="#2ea5e3" d="M 4006.5,1592.5 C 4079.96,1883.59 4088.46,2176.59 4032,2471.5C 4019.15,2536.27 4003.31,2600.27 3984.5,2663.5C 3644.83,2663.5 3305.17,2663.5 2965.5,2663.5C 2998.65,2462.6 3031.15,2261.6 3063,2060.5C 3087.08,1904.92 3110.58,1749.25 3133.5,1593.5C 3424.43,1592.5 3715.43,1592.17 4006.5,1592.5 Z"/></g>
<g><path style="opacity:1" fill="#2ca3e0" d="M 194.5,2663.5 C 779.167,2663.5 1363.83,2663.5 1948.5,2663.5C 2006.89,2704.02 2064.89,2745.02 2122.5,2786.5C 1494,2787.5 865.334,2787.83 236.5,2787.5C 220.736,2746.88 206.736,2705.54 194.5,2663.5 Z"/></g>
<g><path style="opacity:0.999" fill="#2ca3e0" d="M 2965.5,2663.5 C 3305.17,2663.5 3644.83,2663.5 3984.5,2663.5C 3971.73,2705.48 3957.4,2746.81 3941.5,2787.5C 3609.17,2787.5 3276.83,2787.5 2944.5,2787.5C 2951.07,2746.06 2958.07,2704.73 2965.5,2663.5 Z"/></g>
<g><path style="opacity:1" fill="#2ba3df" d="M 2122.5,2786.5 C 2204.13,2843.48 2285.47,2900.81 2366.5,2958.5C 1681.17,2958.5 995.833,2958.5 310.5,2958.5C 282.845,2902.85 258.178,2845.85 236.5,2787.5C 865.334,2787.83 1494,2787.5 2122.5,2786.5 Z"/></g>
<g><path style="opacity:0.999" fill="#2ba3df" d="M 2944.5,2787.5 C 3276.83,2787.5 3609.17,2787.5 3941.5,2787.5C 3920.32,2846.05 3895.65,2903.05 3867.5,2958.5C 3550.5,2958.5 3233.5,2958.5 2916.5,2958.5C 2916.74,2959.79 2916.4,2960.79 2915.5,2961.5C 2924.74,2903.42 2934.4,2845.42 2944.5,2787.5 Z"/></g>
<g><path style="opacity:1" fill="#28a1dc" d="M 310.5,2958.5 C 995.833,2958.5 1681.17,2958.5 2366.5,2958.5C 2436.14,3007.32 2505.8,3056.16 2575.5,3105C 2614.37,3127.18 2655.7,3142.84 2699.5,3152C 2774.32,3164.82 2832.15,3139.65 2873,3076.5C 2893.38,3040.52 2907.55,3002.19 2915.5,2961.5C 2916.4,2960.79 2916.74,2959.79 2916.5,2958.5C 3233.5,2958.5 3550.5,2958.5 3867.5,2958.5C 3745.63,3206.95 3578.96,3421.12 3367.5,3601C 3344.17,3620.32 3320.5,3639.16 3296.5,3657.5C 2491.5,3657.5 1686.5,3657.5 881.5,3657.5C 636.941,3468.32 446.607,3235.32 310.5,2958.5 Z"/></g>
<g><path style="opacity:0.999" fill="#269fd9" d="M 881.5,3657.5 C 1686.5,3657.5 2491.5,3657.5 3296.5,3657.5C 3120.83,3793.75 2926.5,3897.08 2713.5,3967.5C 2297.17,3967.5 1880.83,3967.5 1464.5,3967.5C 1251.76,3896.66 1057.43,3793.33 881.5,3657.5 Z"/></g>
<g><path style="opacity:0.993" fill="#259ed8" d="M 1464.5,3967.5 C 1880.83,3967.5 2297.17,3967.5 2713.5,3967.5C 2510.96,4034.95 2302.8,4068.62 2089,4068.5C 1875.21,4068.56 1667.04,4034.89 1464.5,3967.5 Z"/></g>
</svg>
