<?xml version="1.0" encoding="UTF-8" standalone="no"?>
<svg
   xmlns:dc="http://purl.org/dc/elements/1.1/"
   xmlns:cc="http://creativecommons.org/ns#"
   xmlns:rdf="http://www.w3.org/1999/02/22-rdf-syntax-ns#"
   xmlns:svg="http://www.w3.org/2000/svg"
   xmlns="http://www.w3.org/2000/svg"
   viewBox="0 0 2666.6667 2666.6667"
   height="2666.6667"
   width="2666.6667"
   xml:space="preserve"
   id="svg2"
   version="1.1"><metadata
     id="metadata8"><rdf:RDF><cc:Work
         rdf:about=""><dc:format>image/svg+xml</dc:format><dc:type
           rdf:resource="http://purl.org/dc/dcmitype/StillImage" /></cc:Work></rdf:RDF></metadata><defs
     id="defs6"><clipPath
       id="clipPath22"
       clipPathUnits="userSpaceOnUse"><path
         id="path20"
         d="m 17161.3,10000 c 0,3955.1 -3206.2,7161.3 -7161.3,7161.3 -3955.06,0 -7161.27,-3206.2 -7161.27,-7161.3 0,-3955.1 3206.21,-7161.3 7161.27,-7161.3 3955.1,0 7161.3,3206.2 7161.3,7161.3 z" /></clipPath><linearGradient
       id="linearGradient28"
       spreadMethod="pad"
       gradientTransform="matrix(0,14322.5,14322.5,0,10000,2838.7)"
       gradientUnits="userSpaceOnUse"
       y2="0"
       x2="1"
       y1="0"
       x1="0"><stop
         id="stop24"
         offset="0"
         style="stop-opacity:1;stop-color:#4194d7" /><stop
         id="stop26"
         offset="1"
         style="stop-opacity:1;stop-color:#48b7ea" /></linearGradient></defs><g
     transform="matrix(1.3333333,0,0,-1.3333333,0,2666.6667)"
     id="g10"><g
       transform="scale(0.1)"
       id="g12"><path
         id="path14"
         style="fill:#ffffff;fill-opacity:1;fill-rule:nonzero;stroke:none"
         d="M 20000,0 H 0 V 20000 H 20000 V 0" /><g
         id="g16"><g
           clip-path="url(#clipPath22)"
           id="g18"><path
             id="path30"
             style="fill:url(#linearGradient28);fill-opacity:1;fill-rule:nonzero;stroke:none"
             d="m 17161.3,10000 c 0,3955.1 -3206.2,7161.3 -7161.3,7161.3 -3955.06,0 -7161.27,-3206.2 -7161.27,-7161.3 0,-3955.1 3206.21,-7161.3 7161.27,-7161.3 3955.1,0 7161.3,3206.2 7161.3,7161.3" /></g></g><path
         id="path32"
         style="fill:#ffffff;fill-opacity:1;fill-rule:nonzero;stroke:none"
         d="m 7701.59,9392.6 -1747.52,569.5 c 0,0 -208.62,84.7 -141.61,276.8 13.82,39.7 41.73,73.4 125.17,131.5 387.28,269.9 7167.57,2707 7167.57,2707 0,0 191.5,64.5 304.6,21.6 51.7,-19.6 84.7,-41.7 112.5,-122.7 10.1,-29.4 16,-92 15.2,-154.2 -0.5,-44.9 -6.1,-86.5 -10.1,-151.7 -41.3,-666.3 -1276.9,-5639.1 -1276.9,-5639.1 0,0 -73.9,-291 -338.8,-300.9 -96.6,-3.6 -213.9,15.9 -354,136.5 -519.8,447.2 -2316.65,1654.7 -2713.67,1920.3 -22.34,14.9 -28.74,34.4 -32.54,53.4 -5.59,28 24.84,62.7 24.84,62.7 0,0 3128.67,2781 3211.87,3072.9 6.5,22.6 -17.7,33.7 -50.5,24 -207.9,-76.5 -3810.12,-2351.1 -4207.65,-2602.3 -23.25,-14.7 -88.46,-5.3 -88.46,-5.3" /></g></g></svg>